<?xml version="1.0" encoding="utf-8"?>
<svg version="1.1" id="Layer_1" x="0px" y="0px" width="208px" height="256px" viewBox="0 0 208 256" enable-background="new 0 0 208 256" xmlns="http://www.w3.org/2000/svg">
  <path d="M35.8,2C17.53,2,2,16.72,2,35c0,0,0,184.49,0,186c0,17.87,14.42,32.19,32.08,32.9v0.1h171.74v-9.29 c-13.23,0-23.93-10.7-23.93-23.93c0-13.22,10.7-23.92,23.93-23.92V2H35.8z M58.55,93.26l58.3-40.54c2.03-1.42,4.23-2.56,6.54-3.42 c2.31-0.86,4.71-1.44,7.16-1.69c10.63-1.12,21.07,3.62,27.17,12.36c9.28,13.25,6.01,31.52-7.31,40.77l-58.26,40.54 c-4.05,2.83-8.81,4.6-13.7,5.11c-10.63,1.12-21.06-3.62-27.17-12.36C42.01,120.78,45.27,102.51,58.55,93.26z M172.6,220.68 c0,9.39,4.04,17.87,10.3,23.93H35.4c-13.23,0.1-24.03-10.7-24.03-23.93c0-12.52,9.79-22.81,22.11-23.72l149.72-0.31 C176.74,202.71,172.6,211.19,172.6,220.68z M112.56,92.61c4.66,7.43,6.57,14.04,7.32,18.68l25.54-17.75 c9.32-6.46,11.6-19.25,5.13-28.59c-4.48-6.32-11.84-9.39-19.07-8.65c-3.35,0.37-6.66,1.54-9.6,3.58L96.02,77.87 C99.65,79.13,106.37,82.71,112.56,92.61z M63.35,107.06c8.45-6.86,15.56-12.55,15.57-12.55l-3.41-4.32c0,0-15.7,10.09-19.43,17.11 c-3.73,7.02-1.44,13.11-1.44,13.11S54.92,113.94,63.35,107.06z" style="fill: rgb(31, 41, 55);"/>
</svg>